IKResults
version=1
nRows=17
nColumns=38
inDegrees=yes

Units are S.I. units (second, meters, Newtons, ...)
If the header above contains a line with 'inDegrees', this indicates whether rotational values are in degrees (yes) or radians (no).

endheader
time	sternoclavicular_r2	sternoclavicular_r3	unrotscap_r3	unrotscap_r2	acromioclavicular_r2	acromioclavicular_r3	acromioclavicular_r1	unrothum_r1	unrothum_r3	unrothum_r2	elv_angle	shoulder_elv	shoulder1_r2	shoulder_rot	elbow_flexion	pro_sup	deviation	flexion	proximal_distal_r1	proximal_distal_r3	cmc_flexion	cmc_abduction	mp_flexion	ip_flexion	2mcp_flexion	2mcp_abduction	2pm_flexion	2md_flexion	APLpt_tx	APLpt_ty	APLpt_tz	FPLpt_tx	FPLpt_ty	FPLpt_tz	FPLpt2_tx	FPLpt2_ty	FPLpt2_tz
      1.17000000	     -4.75342036	      2.01332452	     -2.01332452	      4.75342036	     -0.96247093	      7.77835151	      3.49631547	     -3.49631547	     -7.77835151	      0.96247093	     31.47496378	     19.64218888	    -31.47496378	     31.27199504	     98.22492092	     20.71288184	      0.21100789	      0.09353532	     14.31962571	      2.67958948	      3.36700001	     22.54873497	    -27.65299999	    -34.18400000	    -13.90710422	      7.65299997	     26.93900001	     34.89800000	     -0.00010303	     -0.00004121	     -0.00020605	     -0.00013187	     -0.00039562	     -0.00022254	      0.00004241	     -0.00007788	     -0.00009345
      1.18000000	     -4.76019646	      2.01619455	     -2.01619455	      4.76019646	     -0.96384295	      7.78943971	      3.50129954	     -3.50129954	     -7.78943971	      0.96384295	     31.62583790	     19.67018922	    -31.62583790	     31.33021649	     98.19844606	     20.78434915	      0.21115532	      0.09153542	     14.32813156	      2.62229673	      3.36700001	     22.56840959	    -27.65299999	    -34.18400000	    -13.83893352	      7.65299997	     26.93900001	     34.89800000	     -0.00010067	     -0.00004027	     -0.00020134	     -0.00012886	     -0.00038657	     -0.00021745	      0.00004241	     -0.00007788	     -0.00009345
      1.19000000	     -4.70112679	      1.99117543	     -1.99117543	      4.70112679	     -0.95188255	      7.69277991	      3.45785163	     -3.45785163	     -7.69277991	      0.95188255	     32.36853876	     19.42610022	    -32.36853876	     32.15985494	     97.87953818	     20.66883581	      0.21173716	      0.06888643	     14.36184397	      1.97345098	      3.36700001	     22.69920500	    -27.65299999	    -34.18400000	    -14.98396313	      7.65299997	     26.93900001	     34.89800000	     -0.00007445	     -0.00002978	     -0.00014891	     -0.00009530	     -0.00028590	     -0.00016082	      0.00004241	     -0.00007788	     -0.00009345
      1.20000000	     -4.70008475	      1.99073407	     -1.99073407	      4.70008475	     -0.95167155	      7.69107475	      3.45708517	     -3.45708517	     -7.69107475	      0.95167155	     32.43396964	     19.42179427	    -32.43396964	     32.22324118	     97.86867542	     20.73729363	      0.21325841	      0.06859856	     14.44980683	      1.96520390	      3.36700001	     22.70444460	    -27.65299999	    -34.18400000	    -15.02850007	      7.65299997	     26.93900001	     34.89800000	     -0.00007413	     -0.00002965	     -0.00014825	     -0.00009488	     -0.00028464	     -0.00016011	      0.00004241	     -0.00007788	     -0.00009345
      1.21000000	     -4.63322150	      1.96241395	     -1.96241395	      4.63322150	     -0.93813311	      7.58166177	      3.40790479	     -3.40790479	     -7.58166177	      0.93813311	     33.15311306	     19.14550046	    -33.15311306	     32.60731778	     97.60218859	     20.84439832	      0.20990895	      0.04725643	     14.25583008	      1.35379689	      3.36700001	     22.91256407	    -27.65299999	    -34.18400000	    -14.52713475	      7.65299997	     26.93900001	     34.89800000	     -0.00005022	     -0.00002009	     -0.00010044	     -0.00006428	     -0.00019284	     -0.00010847	      0.00004241	     -0.00007788	     -0.00009345
      1.22000000	     -4.62529096	      1.95905495	     -1.95905495	      4.62529096	     -0.93652733	      7.56868448	      3.40207158	     -3.40207158	     -7.56868448	      0.93652733	     33.21963422	     19.11272971	    -33.21963422	     32.70788175	     97.55916893	     20.73246845	      0.21001967	      0.04128190	     14.26226220	      1.18263931	      3.36700001	     22.98805526	    -27.65299999	    -34.18400000	    -14.23224654	      7.65299997	     26.93900001	     34.89800000	     -0.00004366	     -0.00001747	     -0.00008733	     -0.00005589	     -0.00016767	     -0.00009431	      0.00004241	     -0.00007788	     -0.00009345
      1.23000000	     -4.60554594	      1.95069189	     -1.95069189	      4.60554594	     -0.93252937	      7.53637433	      3.38754839	     -3.38754839	     -7.53637433	      0.93252937	     33.76148035	     19.03113890	    -33.76148035	     33.18112006	     97.29106894	     20.72940322	      0.20935360	      0.02686760	     14.22357581	      0.76970017	      3.36700001	     23.12304109	    -27.65299999	    -34.18400000	    -14.61466255	      7.65299997	     26.93900001	     34.89800000	     -0.00002809	     -0.00001124	     -0.00005619	     -0.00003596	     -0.00010788	     -0.00006068	      0.00004241	     -0.00007788	     -0.00009345
      1.24000000	     -4.56911429	      1.93526116	     -1.93526116	      4.56911429	     -0.92515270	      7.47675869	      3.36075158	     -3.36075158	     -7.47675869	      0.92515270	     34.21844568	     18.88059523	    -34.21844568	     33.40610299	     97.06680269	     20.57887102	      0.20245724	      0.02121807	     13.82052880	      0.60785307	      3.36700001	     23.19002137	    -27.65299999	    -34.18400000	    -14.66242935	      7.65299997	     26.93900001	     34.89800000	     -0.00002208	     -0.00000883	     -0.00004417	     -0.00002827	     -0.00008481	     -0.00004770	      0.00004241	     -0.00007788	     -0.00009345
      1.25000000	     -4.56662408	      1.93420643	     -1.93420643	      4.56662408	     -0.92464848	      7.47268379	      3.35891994	     -3.35891994	     -7.47268379	      0.92464848	     34.23424476	     18.87030513	    -34.23424476	     33.43881052	     97.06055855	     20.59034294	      0.20247976	      0.02112608	     13.82182433	      0.60521757	      3.36700001	     23.18995834	    -27.65299999	    -34.18400000	    -14.66136152	      7.65299997	     26.93900001	     34.89800000	     -0.00002199	     -0.00000880	     -0.00004398	     -0.00002815	     -0.00008444	     -0.00004750	      0.00004241	     -0.00007788	     -0.00009345
      1.26000000	     -4.51615893	      1.91283177	     -1.91283177	      4.51615893	     -0.91443032	      7.39010417	      3.32180096	     -3.32180096	     -7.39010417	      0.91443032	     35.02125804	     18.66177194	    -35.02125804	     33.93776977	     96.56852020	     20.72317039	      0.19890393	     -0.00380949	     13.61108349	     -0.10913384	      3.36700001	     23.38068734	    -27.65299999	    -34.18400000	    -14.61346555	      7.65299997	     26.93900001	     34.89800000	      0.00000389	      0.00000155	      0.00000777	      0.00000498	      0.00001493	      0.00000840	      0.00004241	     -0.00007788	     -0.00009345
      1.27000000	     -4.50153528	      1.90663788	     -1.90663788	      4.50153528	     -0.91146933	      7.36617448	      3.31104473	     -3.31104473	     -7.36617448	      0.91146933	     35.25700354	     18.60134377	    -35.25700354	     34.09159033	     96.43984361	     20.67306514	      0.19646376	     -0.00848043	     13.46660980	     -0.24294647	      3.36700001	     23.38832113	    -27.65299999	    -34.18400000	    -14.50814530	      7.65299997	     26.93900001	     34.89800000	      0.00000862	      0.00000345	      0.00001725	      0.00001104	      0.00003311	      0.00001863	      0.00004241	     -0.00007788	     -0.00009345
      1.28000000	     -4.49955543	      1.90579931	     -1.90579931	      4.49955543	     -0.91106845	      7.36293471	      3.30958848	     -3.30958848	     -7.36293471	      0.91106845	     35.27333034	     18.59316257	    -35.27333034	     34.13415118	     96.43254926	     20.68216074	      0.19644032	     -0.00842574	     13.46519338	     -0.24137958	      3.36700001	     23.38865312	    -27.65299999	    -34.18400000	    -14.50473259	      7.65299997	     26.93900001	     34.89800000	      0.00000856	      0.00000342	      0.00001712	      0.00001096	      0.00003288	      0.00001849	      0.00004241	     -0.00007788	     -0.00009345
      1.29000000	     -4.43261341	      1.87744583	     -1.87744583	      4.43261341	     -0.89751405	      7.25339284	      3.26035016	     -3.26035016	     -7.25339284	      0.89751405	     36.00660602	     18.31654329	    -36.00660602	     34.62239721	     95.97185934	     20.84717695	      0.18663434	     -0.03724721	     12.87886783	     -1.06705408	      3.36700001	     23.47445120	    -27.65299999	    -34.18400000	    -14.24091245	      7.65299997	     26.93900001	     34.89800000	      0.00003695	      0.00001478	      0.00007390	      0.00004729	      0.00014188	      0.00007981	      0.00004241	     -0.00007788	     -0.00009345
      1.30000000	     -4.42006412	      1.87213054	     -1.87213054	      4.42006412	     -0.89497307	      7.23285756	      3.25111970	     -3.25111970	     -7.23285756	      0.89497307	     36.07366301	     18.26468682	    -36.07366301	     34.64441262	     95.96111358	     20.96539171	      0.18782472	     -0.04022326	     12.95052778	     -1.15231157	      3.36700001	     23.49546882	    -27.65299999	    -34.18400000	    -13.83054779	      7.65299997	     26.93900001	     34.89800000	      0.00003980	      0.00001592	      0.00007960	      0.00005094	      0.00015283	      0.00008597	      0.00004241	     -0.00007788	     -0.00009345
      1.31000000	     -4.39897949	      1.86320009	     -1.86320009	      4.39897949	     -0.89070386	      7.19835532	      3.23561118	     -3.23561118	     -7.19835532	      0.89070386	     36.55707275	     18.17756045	    -36.55707275	     34.98644802	     95.62174626	     21.23900673	      0.18616192	     -0.05102720	     12.85038717	     -1.46182150	      3.36700001	     23.58380912	    -27.65299999	    -34.18400000	    -13.67023362	      7.65299997	     26.93900001	     34.89800000	      0.00005003	      0.00002001	      0.00010006	      0.00006404	      0.00019211	      0.00010806	      0.00004241	     -0.00007788	     -0.00009345
      1.32000000	     -4.37672946	      1.85377603	     -1.85377603	      4.37672946	     -0.88619869	      7.16194606	      3.21924546	     -3.21924546	     -7.16194606	      0.88619869	     36.63993496	     18.08561839	    -36.63993496	     35.06235978	     95.51796734	     21.03816430	      0.18267087	     -0.05572782	     12.63932291	     -1.59648440	      3.36700001	     23.57905302	    -27.65299999	    -34.18400000	    -13.66536458	      7.65299997	     26.93900001	     34.89800000	      0.00005442	      0.00002177	      0.00010883	      0.00006965	      0.00020896	      0.00011754	      0.00004241	     -0.00007788	     -0.00009345
      1.33000000	     -4.33128417	      1.83452755	     -1.83452755	      4.33128417	     -0.87699694	      7.08758077	      3.18581878	     -3.18581878	     -7.08758077	      0.87699694	     37.11001786	     17.89782835	    -37.11001786	     35.26003996	     95.18663438	     21.14146800	      0.17977855	     -0.06492219	     12.46357697	     -1.85988362	      3.36700001	     23.63565228	    -27.65299999	    -34.18400000	    -13.72831915	      7.65299997	     26.93900001	     34.89800000	      0.00006289	      0.00002516	      0.00012579	      0.00008051	      0.00024152	      0.00013585	      0.00004241	     -0.00007788	     -0.00009345
